<svg width="96" height="24" viewBox="0 0 96 24" fill="none" xmlns="http://www.w3.org/2000/svg">
<path d="M18.7004 13.8657L3.22184 22.8601C1.79057 23.6919 2.99251e-07 22.6547 2.99251e-07 20.9945V3.0057C-0.000845106 1.34551 1.78972 0.309163 3.22099 1.14096L18.6995 10.1353C20.1283 10.9654 20.1283 13.0364 18.6995 13.8665L18.7004 13.8657Z" fill="#754FBF"/>
<path d="M18.7052 23.1629C24.846 23.1629 29.824 18.1651 29.824 11.9999C29.824 5.83475 24.846 0.836914 18.7052 0.836914C12.5645 0.836914 7.58646 5.83475 7.58646 11.9999C7.58646 18.1651 12.5645 23.1629 18.7052 23.1629Z" fill="#FAFAFA"/>
<path opacity="0.5" d="M18.7004 10.1342L9.98762 5.07129C8.48448 6.97507 7.58751 9.38133 7.58751 11.9989C7.58751 14.6165 8.48533 17.0236 9.98762 18.9266L18.7004 13.8637C20.1291 13.0336 20.1291 10.9626 18.7004 10.1325V10.1342Z" fill="#754FBF"/>
<path d="M32.4937 23.1273C33.9435 23.1273 35.1187 21.9474 35.1187 20.4919C35.1187 19.0364 33.9435 17.8564 32.4937 17.8564C31.044 17.8564 29.8688 19.0364 29.8688 20.4919C29.8688 21.9474 31.044 23.1273 32.4937 23.1273Z" fill="#754FBF"/>
<path d="M42.9561 7.14099C44.275 7.14099 45.4881 7.83443 46.1788 8.65349V7.35063H48.6483V17.8567H46.1788V16.5122C45.4881 17.3737 44.2741 18.0672 42.9561 18.0672C39.9634 18.0672 37.7662 15.6091 37.7662 12.6037C37.7662 9.59817 39.9634 7.14014 42.9561 7.14014V7.14099ZM40.2356 12.6037C40.2356 14.2426 41.5748 15.5871 43.2072 15.5871C44.8397 15.5871 46.1788 14.2426 46.1788 12.6037C46.1788 10.9647 44.8397 9.62024 43.2072 9.62024C41.5748 9.62024 40.2356 10.9647 40.2356 12.6037Z" fill="#FAFAFA"/>
<path d="M55.3874 7.14077C56.7062 7.14077 57.9202 7.83421 58.6101 8.65327V2.72803H61.0795V17.8565H58.6101V16.512C57.9194 17.3735 56.7054 18.067 55.3874 18.067C52.3947 18.067 50.1975 15.6089 50.1975 12.6034C50.1975 9.59795 52.3947 7.13992 55.3874 7.13992V7.14077ZM52.666 12.6034C52.666 14.2424 54.0052 15.5869 55.6376 15.5869C57.2701 15.5869 58.6092 14.2424 58.6092 12.6034C58.6092 10.9645 57.2701 9.62002 55.6376 9.62002C54.0052 9.62002 52.666 10.9645 52.666 12.6034Z" fill="#FAFAFA"/>
<path d="M62.6282 9.82984V7.35059H64.3858V6.78361C64.3858 3.75775 65.9971 2.51855 68.5714 2.51855H69.4295V4.91378H68.781C67.5459 4.91378 66.8552 5.35514 66.8552 6.95167V7.35059H69.4295V9.82984H66.8552V17.8566H64.3858V9.82984H62.6282Z" fill="#FAFAFA"/>
<path d="M72.2125 2.51758C73.0292 2.51758 73.6776 3.1898 73.6776 3.98849C73.6776 4.78718 73.0292 5.48063 72.2125 5.48063C71.3959 5.48063 70.7475 4.8084 70.7475 3.98849C70.7475 3.16858 71.3959 2.51758 72.2125 2.51758ZM70.9783 17.8565V7.35046H73.4477V17.8565H70.9783Z" fill="#FAFAFA"/>
<path d="M77.4658 17.8565H74.9964V2.72803H77.4658V17.8565Z" fill="#FAFAFA"/>
<path d="M79.048 7.35027H81.5174V8.48507C82.2918 7.66601 83.4221 7.14062 84.6564 7.14062C86.2466 7.14062 87.5029 7.87566 88.1724 9.11571C89.1142 7.9181 90.2234 7.14062 91.8981 7.14062C94.3262 7.14062 96.0001 8.86362 96.0001 11.5321V17.8572H93.5306V12.0575C93.5306 10.2929 92.61 9.47304 91.2911 9.47304C89.8683 9.47304 88.7583 10.5238 88.7583 12.1416V17.8572H86.2889V12.0575C86.2889 10.2929 85.3682 9.47304 84.0494 9.47304C82.6266 9.47304 81.5174 10.5238 81.5174 12.184V17.8572H79.048V7.35112V7.35027Z" fill="#FAFAFA"/>
<path d="M79.0146 7.35027H81.4841V8.48507C82.2585 7.66601 83.3888 7.14062 84.6231 7.14062C86.2133 7.14062 87.4695 7.87566 88.1391 9.11571C89.0809 7.9181 90.1901 7.14062 91.8648 7.14062C94.2928 7.14062 95.9667 8.86362 95.9667 11.5321V17.8572H93.4973V12.0575C93.4973 10.2929 92.5766 9.47304 91.2578 9.47304C89.835 9.47304 88.725 10.5238 88.725 12.1416V17.8572H86.2555V12.0575C86.2555 10.2929 85.3349 9.47304 84.0161 9.47304C82.5932 9.47304 81.4841 10.5238 81.4841 12.184V17.8572H79.0146V7.35112V7.35027Z" fill="#FAFAFA"/>
</svg>
