<svg width="19" height="14" viewBox="0 0 19 14" fill="none" xmlns="http://www.w3.org/2000/svg">
<path d="M17.8531 2.80923C17.6562 2.04985 17.0656 1.45923 16.3063 1.26235C14.9563 0.896729 9.5 0.896729 9.5 0.896729C9.5 0.896729 4.04375 0.896729 2.69375 1.26235C1.93438 1.45923 1.34375 2.04985 1.14687 2.80923C0.78125 4.18735 0.78125 6.99985 0.78125 6.99985C0.78125 6.99985 0.78125 9.84048 1.14687 11.1905C1.34375 11.9499 1.93438 12.5405 2.69375 12.7374C4.04375 13.103 9.5 13.103 9.5 13.103C9.5 13.103 14.9563 13.103 16.3063 12.7374C17.0656 12.5405 17.6562 11.9499 17.8531 11.1905C18.2188 9.84048 18.2188 6.99985 18.2188 6.99985C18.2188 6.99985 18.2188 4.18735 17.8531 2.80923ZM7.75625 9.61548V4.38423L12.2844 6.99985L7.75625 9.61548Z" fill="white"/>
</svg>
